<svg width="20" height="20" viewBox="0 0 20 20" fill="none" xmlns="http://www.w3.org/2000/svg">
<path d="M14.5833 16.6666C14 16.6666 13.5069 16.4652 13.1042 16.0624C12.7014 15.6596 12.5 15.1666 12.5 14.5833C12.5 13.9999 12.7014 13.5069 13.1042 13.1041C13.5069 12.7013 14 12.4999 14.5833 12.4999C14.6944 12.4999 14.8194 12.5103 14.9583 12.5312C15.0972 12.552 15.25 12.5971 15.4167 12.6666V9.16658C15.4167 8.93047 15.4965 8.73256 15.6562 8.57283C15.816 8.41311 16.0139 8.33325 16.25 8.33325H17.5C17.7361 8.33325 17.934 8.41311 18.0937 8.57283C18.2535 8.73256 18.3333 8.93047 18.3333 9.16658C18.3333 9.4027 18.2535 9.60061 18.0937 9.76033C17.934 9.92006 17.7361 9.99992 17.5 9.99992H16.6667V14.5833C16.6667 15.1666 16.4653 15.6596 16.0625 16.0624C15.6597 16.4652 15.1667 16.6666 14.5833 16.6666ZM9.16667 9.99992C8.25 9.99992 7.46528 9.67353 6.8125 9.02075C6.15972 8.36797 5.83333 7.58325 5.83333 6.66658C5.83333 5.74992 6.15972 4.9652 6.8125 4.31242C7.46528 3.65964 8.25 3.33325 9.16667 3.33325C10.0833 3.33325 10.8681 3.65964 11.5208 4.31242C12.1736 4.9652 12.5 5.74992 12.5 6.66658C12.5 7.58325 12.1736 8.36797 11.5208 9.02075C10.8681 9.67353 10.0833 9.99992 9.16667 9.99992ZM2.5 15.8333V14.3333C2.5 13.8471 2.62153 13.4096 2.86458 13.0208C3.10764 12.6319 3.43056 12.3333 3.83333 12.1249C4.69444 11.6944 5.56944 11.3714 6.45833 11.1562C7.34722 10.9409 8.25 10.8333 9.16667 10.8333C9.75 10.8333 10.3299 10.8784 10.9062 10.9687C11.4826 11.0589 12.0625 11.1944 12.6458 11.3749C11.7292 11.9305 11.1597 12.7256 10.9375 13.7603C10.7153 14.7951 10.8958 15.7638 11.4792 16.6666H3.33333C3.09722 16.6666 2.89931 16.5867 2.73958 16.427C2.57986 16.2673 2.5 16.0694 2.5 15.8333Z" fill="#666666"/>
</svg>
