<svg width="17" height="18" viewBox="0 0 17 18" fill="none" xmlns="http://www.w3.org/2000/svg">
<path d="M8.33333 10.6666C8.49815 10.6666 8.65927 10.6178 8.79631 10.5262C8.93335 10.4346 9.04016 10.3045 9.10323 10.1522C9.16631 9.99992 9.18281 9.83237 9.15065 9.67072C9.1185 9.50907 9.03913 9.36058 8.92259 9.24404C8.80604 9.12749 8.65756 9.04813 8.49591 9.01597C8.33426 8.98382 8.1667 9.00032 8.01443 9.06339C7.86216 9.12647 7.73201 9.23328 7.64044 9.37032C7.54887 9.50736 7.5 9.66847 7.5 9.83329C7.5 10.0543 7.5878 10.2663 7.74408 10.4225C7.90036 10.5788 8.11232 10.6666 8.33333 10.6666ZM12.5 10.6666C12.6648 10.6666 12.8259 10.6178 12.963 10.5262C13.1 10.4346 13.2068 10.3045 13.2699 10.1522C13.333 9.99992 13.3495 9.83237 13.3173 9.67072C13.2852 9.50907 13.2058 9.36058 13.0893 9.24404C12.9727 9.12749 12.8242 9.04813 12.6626 9.01597C12.5009 8.98382 12.3334 9.00032 12.1811 9.06339C12.0288 9.12647 11.8987 9.23328 11.8071 9.37032C11.7155 9.50736 11.6667 9.66847 11.6667 9.83329C11.6667 10.0543 11.7545 10.2663 11.9107 10.4225C12.067 10.5788 12.279 10.6666 12.5 10.6666ZM8.33333 14C8.49815 14 8.65927 13.9511 8.79631 13.8595C8.93335 13.768 9.04016 13.6378 9.10323 13.4855C9.16631 13.3333 9.18281 13.1657 9.15065 13.004C9.1185 12.8424 9.03913 12.6939 8.92259 12.5774C8.80604 12.4608 8.65756 12.3815 8.49591 12.3493C8.33426 12.3172 8.1667 12.3337 8.01443 12.3967C7.86216 12.4598 7.73201 12.5666 7.64044 12.7037C7.54887 12.8407 7.5 13.0018 7.5 13.1666C7.5 13.3876 7.5878 13.5996 7.74408 13.7559C7.90036 13.9122 8.11232 14 8.33333 14ZM12.5 14C12.6648 14 12.8259 13.9511 12.963 13.8595C13.1 13.768 13.2068 13.6378 13.2699 13.4855C13.333 13.3333 13.3495 13.1657 13.3173 13.004C13.2852 12.8424 13.2058 12.6939 13.0893 12.5774C12.9727 12.4608 12.8242 12.3815 12.6626 12.3493C12.5009 12.3172 12.3334 12.3337 12.1811 12.3967C12.0288 12.4598 11.8987 12.5666 11.8071 12.7037C11.7155 12.8407 11.6667 13.0018 11.6667 13.1666C11.6667 13.3876 11.7545 13.5996 11.9107 13.7559C12.067 13.9122 12.279 14 12.5 14ZM4.16667 10.6666C4.33148 10.6666 4.4926 10.6178 4.62964 10.5262C4.76668 10.4346 4.87349 10.3045 4.93657 10.1522C4.99964 9.99992 5.01614 9.83237 4.98399 9.67072C4.95183 9.50907 4.87247 9.36058 4.75592 9.24404C4.63938 9.12749 4.49089 9.04813 4.32924 9.01597C4.16759 8.98382 4.00004 9.00032 3.84776 9.06339C3.69549 9.12647 3.56534 9.23328 3.47378 9.37032C3.38221 9.50736 3.33333 9.66847 3.33333 9.83329C3.33333 10.0543 3.42113 10.2663 3.57741 10.4225C3.73369 10.5788 3.94565 10.6666 4.16667 10.6666ZM14.1667 2.33329H13.3333V1.49996C13.3333 1.27895 13.2455 1.06698 13.0893 0.910704C12.933 0.754423 12.721 0.666626 12.5 0.666626C12.279 0.666626 12.067 0.754423 11.9107 0.910704C11.7545 1.06698 11.6667 1.27895 11.6667 1.49996V2.33329H5V1.49996C5 1.27895 4.9122 1.06698 4.75592 0.910704C4.59964 0.754423 4.38768 0.666626 4.16667 0.666626C3.94565 0.666626 3.73369 0.754423 3.57741 0.910704C3.42113 1.06698 3.33333 1.27895 3.33333 1.49996V2.33329H2.5C1.83696 2.33329 1.20107 2.59668 0.732233 3.06553C0.263392 3.53437 0 4.17025 0 4.83329V14.8333C0 15.4963 0.263392 16.1322 0.732233 16.6011C1.20107 17.0699 1.83696 17.3333 2.5 17.3333H14.1667C14.8297 17.3333 15.4656 17.0699 15.9344 16.6011C16.4033 16.1322 16.6667 15.4963 16.6667 14.8333V4.83329C16.6667 4.17025 16.4033 3.53437 15.9344 3.06553C15.4656 2.59668 14.8297 2.33329 14.1667 2.33329ZM15 14.8333C15 15.0543 14.9122 15.2663 14.7559 15.4225C14.5996 15.5788 14.3877 15.6666 14.1667 15.6666H2.5C2.27899 15.6666 2.06702 15.5788 1.91074 15.4225C1.75446 15.2663 1.66667 15.0543 1.66667 14.8333V7.33329H15V14.8333ZM15 5.66663H1.66667V4.83329C1.66667 4.61228 1.75446 4.40032 1.91074 4.24404C2.06702 4.08776 2.27899 3.99996 2.5 3.99996H14.1667C14.3877 3.99996 14.5996 4.08776 14.7559 4.24404C14.9122 4.40032 15 4.61228 15 4.83329V5.66663ZM4.16667 14C4.33148 14 4.4926 13.9511 4.62964 13.8595C4.76668 13.768 4.87349 13.6378 4.93657 13.4855C4.99964 13.3333 5.01614 13.1657 4.98399 13.004C4.95183 12.8424 4.87247 12.6939 4.75592 12.5774C4.63938 12.4608 4.49089 12.3815 4.32924 12.3493C4.16759 12.3172 4.00004 12.3337 3.84776 12.3967C3.69549 12.4598 3.56534 12.5666 3.47378 12.7037C3.38221 12.8407 3.33333 13.0018 3.33333 13.1666C3.33333 13.3876 3.42113 13.5996 3.57741 13.7559C3.73369 13.9122 3.94565 14 4.16667 14Z" fill="#999999"/>
</svg>
