<svg width="32" height="32" viewBox="0 0 32 32" fill="none" xmlns="http://www.w3.org/2000/svg">
<path d="M16 19C17.6569 19 19 17.6569 19 16C19 14.3431 17.6569 13 16 13C14.3431 13 13 14.3431 13 16C13 17.6569 14.3431 19 16 19Z" fill="black"/>
<path d="M16 1C13.0333 1 10.1332 1.87973 7.66645 3.52796C5.19972 5.17618 3.27713 7.51886 2.14181 10.2597C1.0065 13.0006 0.709449 16.0166 1.28823 18.9264C1.86701 21.8361 3.29562 24.5088 5.3934 26.6066C7.49119 28.7044 10.1639 30.133 13.0737 30.7118C15.9834 31.2906 18.9994 30.9935 21.7403 29.8582C24.4812 28.7229 26.8238 26.8003 28.4721 24.3336C30.1203 21.8668 31 18.9667 31 16C31 12.0218 29.4197 8.20644 26.6066 5.3934C23.7936 2.58035 19.9783 1 16 1ZM16 21C15.0111 21 14.0444 20.7068 13.2222 20.1573C12.3999 19.6079 11.759 18.827 11.3806 17.9134C11.0022 16.9998 10.9032 15.9945 11.0961 15.0245C11.289 14.0546 11.7652 13.1637 12.4645 12.4645C13.1637 11.7652 14.0547 11.289 15.0246 11.0961C15.9945 10.9031 16.9998 11.0022 17.9134 11.3806C18.8271 11.759 19.6079 12.3999 20.1574 13.2221C20.7068 14.0444 21 15.0111 21 16C21 17.3261 20.4732 18.5979 19.5355 19.5355C18.5979 20.4732 17.3261 21 16 21ZM25.63 13.14C25.3846 13.2389 25.1101 13.2366 24.8664 13.1335C24.6227 13.0304 24.4299 12.835 24.33 12.59C23.8851 11.4947 23.2273 10.4986 22.3948 9.65921C21.5623 8.81984 20.5716 8.15392 19.48 7.7C19.3496 7.65636 19.2296 7.5863 19.1275 7.4942C19.0254 7.4021 18.9434 7.28993 18.8866 7.16471C18.8299 7.03948 18.7995 6.90389 18.7975 6.76641C18.7955 6.62892 18.8218 6.4925 18.8749 6.36566C18.928 6.23882 19.0066 6.12429 19.106 6.02922C19.2053 5.93415 19.3232 5.8606 19.4522 5.81314C19.5813 5.76569 19.7187 5.74536 19.856 5.75342C19.9933 5.76148 20.1274 5.79776 20.25 5.86C21.5878 6.41545 22.8014 7.23221 23.8196 8.26247C24.8378 9.29273 25.6403 10.5158 26.18 11.86C26.2728 12.103 26.2673 12.3726 26.1646 12.6115C26.0619 12.8505 25.8701 13.0401 25.63 13.14Z" fill="black"/>
</svg>
