<svg width="31" height="31" viewBox="0 0 31 31" fill="none" xmlns="http://www.w3.org/2000/svg">
<path d="M15.4147 19.048C15.248 19.048 15.0868 19.0167 14.9309 18.9542C14.7743 18.8917 14.6438 18.8084 14.5397 18.7042L8.78967 12.9542C8.56051 12.7251 8.44592 12.4334 8.44592 12.0792C8.44592 11.7251 8.56051 11.4334 8.78967 11.2042C9.01884 10.9751 9.31051 10.8605 9.66467 10.8605C10.0188 10.8605 10.3105 10.9751 10.5397 11.2042L15.4147 16.0792L20.2897 11.2042C20.5188 10.9751 20.8105 10.8605 21.1647 10.8605C21.5188 10.8605 21.8105 10.9751 22.0397 11.2042C22.2688 11.4334 22.3834 11.7251 22.3834 12.0792C22.3834 12.4334 22.2688 12.7251 22.0397 12.9542L16.2897 18.7042C16.1647 18.8292 16.0293 18.9176 15.8834 18.9692C15.7376 19.0217 15.5813 19.048 15.4147 19.048Z" fill="#666666"/>
</svg>
